***************************************************************

[IMG]http://www.torrentforce.org/imghost/3/greyshadow_tfbanner.png[/IMG]

***************************************************************

[IMG]http://www.torrentforce.org/imghost/4/greyshadow_horriblebosses.jpg[/IMG]

***************************************************************

FILM TITLE: Horrible Bosses (2011)

***************************************************************

Genre: Comedy | Crime   

Rated R for crude and sexual content, pervasive language and some drug material

Release: 22 July 2011 (UK)

Director: Seth Gordon

Writer: Michael Markowitz (screenplay), John Francis Daley (screenplay)

Stars: Jason Bateman, Charlie Day and Jason Sudeikis 

Country: USA

Language: English

Plot:
Three friends conspire to murder their awful bosses when they 
realize they are standing in the way of their happiness.

IMDB Rating: 7.2/10 from 52,322 users   Metascore: 57/100
 
http://www.imdb.com/title/tt1499658/ 

****************************************************************

[IMG]http://www.torrentforce.org/imghost/4/greyshadow_horriblebossesxvid1.png[/IMG]
[IMG]http://www.torrentforce.org/imghost/4/greyshadow_horriblebossesxvid2.png[/IMG]
[IMG]http://www.torrentforce.org/imghost/4/greyshadow_horriblebossesxvid3.png[/IMG]
[IMG]http://www.torrentforce.org/imghost/4/greyshadow_horriblebossesxvid4.png[/IMG]

****************************************************************

[IMG]http://www.torrentforce.org/imghost/2/greyshadow_mediainfo.png[/IMG]
General
Complete name                    : Horrible Bosses 2011 720p BDRip XviD ac3 (avi) [TFRG].avi
Format                           : AVI
Format/Info                      : Audio Video Interleave
Format profile                   : OpenDML
File size                        : 2.84 GiB
Duration                         : 1h 45mn
Overall bit rate                 : 3854 Kbps
Writing library                  : VirtualDub build 32842/release

Video
ID                               : 0
Format                           : MPEG-4 Visual
Format profile                   : Simple@L5
Format settings, BVOP            : No
Format settings, QPel            : No
Format settings, GMC             : No warppoints
Format settings, Matrix          : Default (H.263)
Codec ID                         : XVID
Codec ID/Hint                    : XviD
Duration                         : 1h 45mn
Bit rate                         : 3396 Kbps
Width                            : 1280 pixels
Height                           : 528 pixels
Display aspect ratio             : 2.40:1
Frame rate                       : 23.976 fps
Color space                      : YUV
Chroma subsampling               : 4:2:0
Bit depth                        : 8 bits
Scan type                        : Progressive
Compression mode                 : Lossy
Bits/(Pixel*Frame)               : 0.210
Stream size                      : 2.50 GiB (88%)
Writing library                  : XviD 64

Audio
ID                               : 1
Format                           : AC-3
Format/Info                      : Audio Coding 3
Mode extension                   : CM (complete main)
Codec ID                         : 2000
Duration                         : 1h 45mn
Bit rate mode                    : Constant
Bit rate                         : 448 Kbps
Channel(s)                       : 6 channels
Channel positions                : Front: L C R, Side: L R, LFE
Sampling rate                    : 48.0 KHz
Bit depth                        : 16 bits
Compression mode                 : Lossy
Stream size                      : 338 MiB (12%)
Alignment                        : Aligned on interleaves
Interleave, duration             : 42 ms (1.00 video frame)
Interleave, preload duration     : 512 ms

****************************************************************

Video Source: Horrible Bosses 2011 BluRay REMUX 1080p AVC DTS-HD MA5.1-CHD (23.9GB)

Thanks: (chdbits.org)

****************************************************************

I provide a small sample, so please download this to check your 
compatibility first if you are unsure.

****************************************************************

7th October 2011

I am re-introducing my warning to all downloaders, please please
please use a proxy or vpn service, it is the only secure way to
keep your own ip address from being seen during downloading or
uploading/seeding, this WILL stop isp letters, as for advice to 
which one then thats simple, vpntunnel.se server based in Sweden 
is the right one to use, I have cancelled my vpn and transfered 
to a Swedish one already !!! enough said. 

****************************************************************

A big thanks to all the sites out there who care and share and
who make it possible for you to download this torrent for free.

Greetz to Westy, Ripwyn, mustang, noir, Blackjesus, MXMG, The Stig 
and all the other outstanding members of our community of file 
sharers and a special mention to our friends at 1337x.

****************************************************************